<?xml version="1.0" encoding="utf-8"?>
<!-- Generator: Adobe Illustrator 26.0.0, SVG Export Plug-In . SVG Version: 6.00 Build 0)  -->
<svg version="1.1" id="Layer_1" xmlns="http://www.w3.org/2000/svg" xmlns:xlink="http://www.w3.org/1999/xlink" x="0px" y="0px"
	 viewBox="0 0 379.4 447.3" style="enable-background:new 0 0 379.4 447.3;" xml:space="preserve">
<style type="text/css">
	.st0{fill:#3F71BF;stroke:#FFFFFF;stroke-width:5.6693;stroke-miterlimit:10;}
	.st1{fill:#2153A1;stroke:#FFFFFF;stroke-width:5.6693;stroke-miterlimit:10;}
	.st2{fill:none;stroke:#FFFFFF;stroke-width:5.6693;stroke-miterlimit:10;}
	.st3{fill:#174997;}
	.st4{fill:#FFFFFF;}
	.st5{fill:#A26E3D;}
	.st6{fill:#8B523E;}
	.st7{fill:none;stroke:#A26E3D;stroke-width:17.0079;stroke-miterlimit:10;}
</style>
<g>
	<circle class="st0" cx="162.3" cy="229.4" r="111.9"/>
	
		<ellipse transform="matrix(0.7888 -0.6147 0.6147 0.7888 -106.2537 148.1501)" class="st1" cx="162.4" cy="228.7" rx="59.1" ry="109.4"/>
	<line class="st2" x1="51" y1="241" x2="202.1" y2="124.7"/>
	<line class="st2" x1="78.8" y1="299.2" x2="251.9" y2="166"/>
	<line class="st2" x1="125.7" y1="336.6" x2="276.8" y2="220.3"/>
	<line class="st2" x1="229.7" y1="315" x2="95.2" y2="142.4"/>
</g>
<g>
	<g>
		
			<image style="overflow:visible;opacity:0.3;" width="123" height="141" xlink:href="30032512.png"  transform="matrix(1 0 0 1 191.084 77.8567)">
		</image>
		<g>
			<path class="st3" d="M230.5,185.1c-28-12.1-40.8-44.5-28.8-72.5c12.1-28,44.5-40.8,72.5-28.8c28,12.1,40.8,44.5,28.8,72.5
				l-21.9,50.6L230.5,185.1z"/>
		</g>
	</g>
	<g>
		
			<image style="overflow:visible;opacity:0.3;" width="53" height="53" xlink:href="30032516.png"  transform="matrix(1 0 0 1 226.084 112.8567)">
		</image>
		<g>
			<circle class="st4" cx="252.3" cy="134.5" r="20.2"/>
		</g>
	</g>
</g>
<path class="st5" d="M67.4,116.5c-1-1.4-1.6-3.1-1.7-4.9c-0.3-5.3,3.7-9.9,9.1-10.2c2.6-0.2,5.3,0.4,6.8,2.3
	c11.6,14.8,11.6,14.8,11.6,14.8c1.3,1.5,2.2,3.5,2.3,5.7c0.3,5.3-3.7,9.9-9.1,10.2c-2.9,0.2-5.8-0.7-7.4-2.8
	C67.4,116.5,67.4,116.5,67.4,116.5z"/>
<path class="st5" d="M236.1,334.8c-1-1.4-1.6-3.1-1.7-4.9c-0.3-5.3,3.7-9.9,9.1-10.2c2.6-0.2,5.3,0.4,6.8,2.3
	c11.6,14.8,11.6,14.8,11.6,14.8c1.3,1.5,2.2,3.5,2.3,5.7c0.3,5.3-3.7,9.9-9.1,10.2c-2.9,0.2-5.8-0.7-7.4-2.8
	C236.1,334.8,236.1,334.8,236.1,334.8z"/>
<polygon class="st6" points="148,368.4 139.9,395.3 197.2,395.3 188.2,363.9 149,363.9 "/>
<path class="st5" d="M101.2,414.9c0,0,0.3-9.4,5.4-14.9c5.1-5.5,9.5-6.1,11.3-6.1s95.8,0,100.1,0s9.4,3.5,12.5,7.9
	s3.8,13.1,3.8,13.1H101.2z"/>
<path class="st7" d="M249.3,336.8c-23,17-51.5,27.1-82.4,27.1c-76.6,0-138.7-62.1-138.7-138.7c0-45.6,22-86.1,56.1-111.4"/>
</svg>
